{"title":"[Seiakusetsu] Ghost in the Shell Arise - Border 2 - Ghost Whispe","uid":9309377,"size":1440605044,"categoryP":"video","categoryS":"hd___movies","magnet":"?xt=urn:btih:4f2746bab3c3ad768369a285bc4cf17567f7825a&amp;dn=%5BSeiakusetsu%5D+Ghost+in+the+Shell+Arise+-+Border+2+-+Ghost+Whispe&amp;tr=udp%3A%2F%2Ftracker.openbittorrent.com%3A80&amp;tr=udp%3A%2F%2Fopen.demonii.com%3A1337&amp;tr=udp%3A%2F%2Ftracker.coppersurfer.tk%3A6969&amp;tr=udp%3A%2F%2Fexodus.desync.com%3A6969","seeders":0,"leechers":0,"uploader":null,"files":-1,"time":1386379066,"description":"Anime: Ghost in the Shell: Arise\nMovie: Border 2 - &quot;Ghost Whispers&quot;\n\n\nscreenshots: &lt;a href=&quot;\nhttp://i.imgur.com/9SOobYR.jpg&quot; rel=&quot;nofollow&quot; target=&quot;_NEW&quot;&gt;\nhttp://i.imgur.com/9SOobYR.jpg&lt;/a&gt;\n\n\n\nGeneral\n\nFormat                         : MPEG-4\nFormat profile                 : Base Media\nCodec ID                       : isom\nFile size                      : 1.34 GiB\nDuration                       : 56mn 19s\nOverall bit rate mode          : Variable\nOverall bit rate               : 3 410 Kbps\n\n\nVideo\n\nFormat                         : AVC\nFormat/Info                    : Advanced Video Codec\nFormat profile                 : &lt;a class=&quot;__cf_email__&quot; href=&quot;/cdn-cgi/l/email-protection&quot; data-cfemail=&quot;226a4b454a626e160c13&quot;&gt;[email&amp;#160;protected]&lt;/a&gt;&lt;script data-cfhash='f9e31' type=&quot;text/javascript&quot;&gt;\n/* &lt;![CDATA[ */!function(){try{var t=&quot;currentScript&quot;in document?document.currentScript:function(){for(var t=document.getElementsByTagName(&quot;script&quot;),e=t.length;e--;)if(t[e].getAttribute(&quot;data-cfhash&quot;))return t[e]}();if(t&amp;&amp;t.previousSibling){var e,r,n,i,c=t.previousSibling,a=c.getAttribute(&quot;data-cfemail&quot;);if(a){for(e=&quot;&quot;,r=parseInt(a.substr(0,2),16),n=2;a.length-n;n+=2)i=parseInt(a.substr(n,2),16)^r,e+=String.fromCharCode(i);e=document.createTextNode(e),c.parentNode.replaceChild(e,c)}t.parentNode.removeChild(t);}}catch(u){}}()/* ]]&gt; */&lt;/script&gt;\nFormat settings, CABAC         : Yes\nFormat settings, ReFrames      : 6 frames\nCodec ID                       : avc1\nCodec ID/Info                  : Advanced Video Coding\nDuration                       : 56mn 19s\nBit rate                       : 3 150 Kbps\nMaximum bit rate               : 23.0 Mbps\nWidth                          : 1 280 pixels\nHeight                         : 720 pixels\nDisplay aspect ratio           : 16:9\nFrame rate mode                : Constant\nFrame rate                     : 23.976 fps\nColor space                    : YUV\nChroma subsampling             : 4:2:0\nBit depth                      : 8 bits\nScan type                      : Progressive\nBits/(Pixel*Frame)             : 0.143\nStream size                    : 1.24 GiB (92%)\n\n\nAudio\n\nFormat                         : AAC\nFormat/Info                    : Advanced Audio Codec\nFormat profile                 : LC\nCodec ID                       : 40\nDuration                       : 56mn 19s\nBit rate mode                  : Variable\nBit rate                       : 256 Kbps\nMaximum bit rate               : 263 Kbps\nChannel count                  : 2 channels\nChannel positions              : Front: L R\nSampling rate                  : 48.0 KHz\nCompression mode               : Lossy\nDelay relative to video        : 125ms\nStream size                    : 103 MiB (8%)","torrent":{"xt":"urn:btih:4f2746bab3c3ad768369a285bc4cf17567f7825a","amp;dn":"%5BSeiakusetsu%5D+Ghost+in+the+Shell+Arise+-+Border+2+-+Ghost+Whispe","amp;tr":["udp%3A%2F%2Ftracker.openbittorrent.com%3A80","udp%3A%2F%2Fopen.demonii.com%3A1337","udp%3A%2F%2Ftracker.coppersurfer.tk%3A6969","udp%3A%2F%2Fexodus.desync.com%3A6969"],"infoHash":"4f2746bab3c3ad768369a285bc4cf17567f7825a","infoHashBuffer":{"type":"Buffer","data":[79,39,70,186,179,195,173,118,131,105,162,133,188,76,241,117,103,247,130,90]},"announce":[],"urlList":[]}}